M48
;Layer_Color=9474304
;FILE_FORMAT=4:4
METRIC,LZ
;TYPE=PLATED
T01F00S00C0.7620
T02F00S00C0.9000
T03F00S00C1.0160
%
T01
X-0005715Y-0015875
T02
X-0014478Y-0043942
X-0011938
X-0009398
X-0006858
X-0004318
X-0001905Y-003937
Y-003683
Y-003429
Y-003175
Y-002921
X-000254Y-002159
Y-001905
Y-001651
Y-001397
Y-001143
X-0008255Y-0015875
X-0010795
X-001397
X-001651
X-001905
X-002159
X-002413
X-002667
X-002921
X-003175
X-003429
X-003683
X-003937
X-0042545Y-001778
Y-002032
X-004953Y-0004572
X-005207
X-0052578Y-0043942
X-0050038
X-0047498
X-003429Y-003937
X-003175
X-002921
X-002667
X-002413
X-0055118Y-0043942
X-0057658
X-005715Y-0004572
X-005969
X-005461
X-004572Y-0004318
X-004318
X-004064
X-00381
X-003556
X-0030734
X-0028194
X-0025654
X-0023114
X-0020574
X-0014986
X-0012446
X-0009906
X-0007366
X-0004826
T03
X-001397Y-002667
X-001143
X-000889
X-000635
Y-002413
X-000889
X-001143
X-001397
X-001651
Y-002667
X-001905
X-002159
X-002413
X-002667
X-002921
X-003175
X-003429
X-003683
X-003937
X-004191
X-004445
X-004699
X-004953
X-005207
Y-002413
X-004953
X-004699
X-004445
X-004191
X-003937
X-003683
X-003429
X-003175
X-002921
X-002667
X-002413
X-002159
X-001905
X-005461
Y-002667
M30
