G04*
G04 #@! TF.GenerationSoftware,Altium Limited,Altium Designer,24.5.2 (23)*
G04*
G04 Layer_Physical_Order=1*
G04 Layer_Color=255*
%FSLAX44Y44*%
%MOMM*%
G71*
G04*
G04 #@! TF.SameCoordinates,C5F79816-F3BF-4F28-B5AB-9B0DAD98A386*
G04*
G04*
G04 #@! TF.FilePolarity,Positive*
G04*
G01*
G75*
%ADD18C,0.7620*%
%ADD19C,0.5080*%
%ADD20C,1.0160*%
%ADD21C,1.2700*%
%ADD22R,1.5000X1.5000*%
%ADD23C,1.5000*%
%ADD24R,1.5000X1.5000*%
%ADD25C,1.5240*%
%ADD26R,1.5240X1.5240*%
D18*
X-426720Y-129540D02*
X-134620D01*
X-434340Y-109220D02*
X-139700D01*
X-124460Y-43802D02*
Y-43180D01*
X-449580Y-93980D02*
X-149860D01*
X-134620Y-129540D02*
X-48260Y-43180D01*
X-139700Y-109220D02*
X-73660Y-43180D01*
X-133470Y-52812D02*
X-124460Y-43802D01*
X-149860Y-93980D02*
X-99060Y-43180D01*
X-495300Y-139700D02*
X-449580Y-93980D01*
X-462280Y-76200D02*
X-155308D01*
X-133470Y-54362D02*
Y-52812D01*
X-155308Y-76200D02*
X-133470Y-54362D01*
X-469900Y-144780D02*
X-434340Y-109220D01*
X-444500Y-147320D02*
X-426720Y-129540D01*
X-563880Y-114300D02*
X-495300Y-45720D01*
X-563880Y-248233D02*
Y-114300D01*
Y-248233D02*
X-546100Y-266013D01*
Y-266700D02*
Y-266013D01*
X-574221Y-284480D02*
X-539167D01*
X-581660Y-277041D02*
X-574221Y-284480D01*
X-581660Y-106680D02*
X-520700Y-45720D01*
X-581660Y-277041D02*
Y-106680D01*
X-599440Y-294820D02*
Y-99060D01*
X-546100Y-45720D01*
X-592001Y-302260D02*
X-530860D01*
X-599440Y-294820D02*
X-592001Y-302260D01*
X-617220Y-315140D02*
Y-91440D01*
Y-315140D02*
X-609781Y-322580D01*
X-500380D01*
X-617220Y-91440D02*
X-571500Y-45720D01*
X-539167Y-284480D02*
X-521387Y-266700D01*
X-520700D01*
X-530860Y-302260D02*
X-495300Y-266700D01*
X-500380Y-322580D02*
X-444500Y-266700D01*
X-576580Y-439420D02*
X-423153Y-285993D01*
X-387593D01*
X-368300Y-266700D01*
X-551180Y-439420D02*
X-419100Y-307340D01*
X-384227D02*
X-343587Y-266700D01*
X-419100Y-307340D02*
X-384227D01*
X-401320Y-340360D02*
X-340360D01*
X-266700Y-266700D01*
X-411480Y-325120D02*
X-375920D01*
X-525780Y-439420D02*
X-411480Y-325120D01*
X-375920D02*
X-317500Y-266700D01*
X-500380Y-439420D02*
X-401320Y-340360D01*
X-343587Y-266700D02*
X-342900D01*
X-68580Y-439420D02*
Y-337820D01*
X-139700Y-266700D02*
X-68580Y-337820D01*
X-165100Y-266700D02*
X-93980Y-337820D01*
Y-439420D02*
Y-337820D01*
X-190500Y-266700D02*
X-119380Y-337820D01*
Y-439420D02*
Y-337820D01*
X-241300Y-266700D02*
X-144780Y-363220D01*
Y-439420D02*
Y-363220D01*
X-444500Y-241300D02*
Y-147320D01*
X-469900Y-241300D02*
Y-144780D01*
X-495300Y-241300D02*
Y-139700D01*
X-520700Y-134620D02*
X-462280Y-76200D01*
X-520700Y-241300D02*
Y-134620D01*
X-266700Y-241300D02*
X-254000Y-254000D01*
X-25400Y-139700D02*
Y-114300D01*
Y-165100D02*
Y-139700D01*
Y-190500D02*
Y-165100D01*
Y-215900D02*
Y-190500D01*
X-63500Y-266700D02*
X-25400Y-228600D01*
Y-215900D01*
X-88900Y-266700D02*
X-63500D01*
X-57150Y-162187D02*
Y-158750D01*
X-63500Y-241300D02*
Y-168537D01*
X-57150Y-162187D01*
X-425450Y-177800D02*
X-393700Y-209550D01*
Y-241300D02*
Y-209550D01*
X-266700Y-241300D02*
Y-158750D01*
X-215900Y-241300D02*
Y-158750D01*
X-190500Y-241300D02*
Y-158750D01*
X-165100Y-241300D02*
Y-158750D01*
X-139700Y-241300D02*
Y-158750D01*
D19*
X-76200Y-254000D02*
X-63500Y-241300D01*
X-254000Y-254000D02*
X-76200D01*
X-266700Y-393700D02*
X-241300D01*
X-342900D02*
X-317500D01*
X-292100D01*
X-266700D01*
X-254000Y-381000D02*
X-241300Y-393700D01*
X-254000Y-381000D02*
Y-254000D01*
X-424119Y-218320D02*
Y-204531D01*
Y-218320D02*
X-406400Y-236040D01*
Y-253313D02*
Y-236040D01*
X-425450Y-203200D02*
X-424119Y-204531D01*
X-406400Y-253313D02*
X-406400Y-253313D01*
D20*
X-114300Y-167784D02*
X-107950Y-161434D01*
X-114300Y-241300D02*
Y-167784D01*
X-107950Y-161434D02*
Y-158750D01*
X-88900Y-241300D02*
Y-165100D01*
X-82550Y-158750D01*
D21*
X-406400Y-253313D02*
X-393700Y-266013D01*
Y-266700D02*
Y-266013D01*
X-368300Y-241300D02*
Y-158750D01*
D22*
X-307340Y-43180D02*
D03*
X-149860D02*
D03*
X-495300Y-45720D02*
D03*
X-576580Y-439420D02*
D03*
X-144780D02*
D03*
X-139700Y-158750D02*
D03*
X-457200Y-43180D02*
D03*
X-342900Y-393700D02*
D03*
X-82550Y-158750D02*
D03*
D23*
X-281940Y-43180D02*
D03*
X-256540D02*
D03*
X-231140D02*
D03*
X-205740D02*
D03*
X-25400Y-190500D02*
D03*
Y-165100D02*
D03*
Y-139700D02*
D03*
Y-114300D02*
D03*
X-124460Y-43180D02*
D03*
X-99060D02*
D03*
X-73660D02*
D03*
X-48260D02*
D03*
X-596900Y-45720D02*
D03*
X-571500D02*
D03*
X-546100D02*
D03*
X-520700D02*
D03*
X-551180Y-439420D02*
D03*
X-525780D02*
D03*
X-500380D02*
D03*
X-474980D02*
D03*
X-43180D02*
D03*
X-68580D02*
D03*
X-93980D02*
D03*
X-119380D02*
D03*
X-425450Y-203200D02*
D03*
X-393700Y-158750D02*
D03*
X-368300D02*
D03*
X-342900D02*
D03*
X-317500D02*
D03*
X-292100D02*
D03*
X-266700D02*
D03*
X-241300D02*
D03*
X-215900D02*
D03*
X-190500D02*
D03*
X-165100D02*
D03*
X-355600Y-43180D02*
D03*
X-381000D02*
D03*
X-406400D02*
D03*
X-431800D02*
D03*
X-19050Y-292100D02*
D03*
Y-317500D02*
D03*
Y-342900D02*
D03*
Y-368300D02*
D03*
X-317500Y-393700D02*
D03*
X-292100D02*
D03*
X-266700D02*
D03*
X-241300D02*
D03*
X-107950Y-158750D02*
D03*
D24*
X-25400Y-215900D02*
D03*
X-425450Y-177800D02*
D03*
X-19050Y-393700D02*
D03*
D25*
X-57150Y-158750D02*
D03*
X-546100Y-266700D02*
D03*
X-520700D02*
D03*
X-495300D02*
D03*
X-469900D02*
D03*
X-444500D02*
D03*
X-419100D02*
D03*
X-546100Y-241300D02*
D03*
X-520700D02*
D03*
X-495300D02*
D03*
X-469900D02*
D03*
X-444500D02*
D03*
X-419100D02*
D03*
X-393700Y-266700D02*
D03*
Y-241300D02*
D03*
X-368300Y-266700D02*
D03*
X-342900D02*
D03*
X-317500D02*
D03*
X-292100D02*
D03*
X-266700D02*
D03*
X-241300D02*
D03*
X-368300Y-241300D02*
D03*
X-342900D02*
D03*
X-317500D02*
D03*
X-292100D02*
D03*
X-266700D02*
D03*
X-241300D02*
D03*
X-215900Y-266700D02*
D03*
Y-241300D02*
D03*
X-190500Y-266700D02*
D03*
X-165100D02*
D03*
X-139700D02*
D03*
X-114300D02*
D03*
X-88900D02*
D03*
X-63500D02*
D03*
X-190500Y-241300D02*
D03*
X-165100D02*
D03*
X-139700D02*
D03*
X-114300D02*
D03*
X-88900D02*
D03*
D26*
X-63500D02*
D03*
M02*
