G04*
G04 #@! TF.GenerationSoftware,Altium Limited,Altium Designer,24.3.1 (35)*
G04*
G04 Layer_Physical_Order=2*
G04 Layer_Color=16711680*
%FSLAX44Y44*%
%MOMM*%
G71*
G04*
G04 #@! TF.SameCoordinates,8F163816-7A31-40B1-8D5E-A3095961BFF6*
G04*
G04*
G04 #@! TF.FilePolarity,Positive*
G04*
G01*
G75*
%ADD22C,5.0800*%
%ADD24C,1.6500*%
%ADD25R,1.6500X1.6500*%
%ADD26R,1.6500X1.6500*%
%ADD27C,3.0000*%
%ADD28R,3.0000X3.0000*%
%ADD29R,3.0000X2.5000*%
%ADD30O,3.0000X2.5000*%
G36*
X1778000Y1117600D02*
X1651000D01*
Y1092200D01*
X1574800Y1016000D01*
X1498600D01*
Y1270000D01*
X1778000D01*
Y1117600D01*
D02*
G37*
G36*
X1473200Y990600D02*
X1574800D01*
X1676400Y1092200D01*
X1778000D01*
Y635000D01*
X1041400D01*
Y1270000D01*
X1473200D01*
Y990600D01*
D02*
G37*
%LPC*%
G36*
X1737990Y1204590D02*
X1716410D01*
Y1183010D01*
X1737990D01*
Y1204590D01*
D02*
G37*
G36*
X1585590D02*
X1564010D01*
Y1183010D01*
X1585590D01*
Y1204590D01*
D02*
G37*
G36*
X1111010Y1222175D02*
X1075930D01*
Y1192095D01*
X1111010D01*
Y1222175D01*
D02*
G37*
G36*
X1433190Y1204590D02*
X1411610D01*
Y1183010D01*
X1433190D01*
Y1204590D01*
D02*
G37*
G36*
X1373020D02*
X1370179D01*
X1367435Y1203855D01*
X1364975Y1202434D01*
X1362966Y1200425D01*
X1361545Y1197965D01*
X1360810Y1195220D01*
Y1192380D01*
X1361545Y1189635D01*
X1362966Y1187175D01*
X1364975Y1185166D01*
X1367435Y1183745D01*
X1370179Y1183010D01*
X1373020D01*
X1375765Y1183745D01*
X1378225Y1185166D01*
X1380234Y1187175D01*
X1381655Y1189635D01*
X1382390Y1192380D01*
Y1195220D01*
X1381655Y1197965D01*
X1380234Y1200425D01*
X1378225Y1202434D01*
X1375765Y1203855D01*
X1373020Y1204590D01*
D02*
G37*
G36*
X1280790D02*
X1259210D01*
Y1183010D01*
X1280790D01*
Y1204590D01*
D02*
G37*
G36*
X1220620D02*
X1217779D01*
X1215035Y1203855D01*
X1212575Y1202434D01*
X1210566Y1200425D01*
X1209145Y1197965D01*
X1208410Y1195220D01*
Y1192380D01*
X1209145Y1189635D01*
X1210566Y1187175D01*
X1212575Y1185166D01*
X1215035Y1183745D01*
X1217779Y1183010D01*
X1220620D01*
X1223365Y1183745D01*
X1225825Y1185166D01*
X1227834Y1187175D01*
X1229255Y1189635D01*
X1229990Y1192380D01*
Y1195220D01*
X1229255Y1197965D01*
X1227834Y1200425D01*
X1225825Y1202434D01*
X1223365Y1203855D01*
X1220620Y1204590D01*
D02*
G37*
G36*
X1111010Y1144705D02*
X1075930D01*
Y1114625D01*
X1111010D01*
Y1144705D01*
D02*
G37*
G36*
X1387870Y1069775D02*
X1352790D01*
Y1039695D01*
X1387870D01*
Y1069775D01*
D02*
G37*
G36*
X1128390Y1052190D02*
X1106810D01*
Y1030610D01*
X1128390D01*
Y1052190D01*
D02*
G37*
G36*
X1712590Y1026790D02*
X1691010D01*
Y1005210D01*
X1712590D01*
Y1026790D01*
D02*
G37*
G36*
X1387870Y992305D02*
X1352790D01*
Y962225D01*
X1387870D01*
Y992305D01*
D02*
G37*
G36*
X1128390Y899790D02*
X1106810D01*
Y878210D01*
X1128390D01*
Y899790D01*
D02*
G37*
G36*
X1712590Y848990D02*
X1691010D01*
Y827410D01*
X1712590D01*
Y848990D01*
D02*
G37*
G36*
X1534790Y823590D02*
X1513210D01*
Y802010D01*
X1534790D01*
Y823590D01*
D02*
G37*
G36*
X1382390D02*
X1360810D01*
Y802010D01*
X1382390D01*
Y823590D01*
D02*
G37*
G36*
X1229990D02*
X1208410D01*
Y802010D01*
X1229990D01*
Y823590D01*
D02*
G37*
G36*
X1102990Y747390D02*
X1081410D01*
Y725810D01*
X1102990D01*
Y747390D01*
D02*
G37*
G36*
X1687190Y721990D02*
X1665610D01*
Y700410D01*
X1687190D01*
Y721990D01*
D02*
G37*
%LPD*%
D22*
X1574800Y791758D02*
Y812800D01*
X1556004Y963168D02*
X1574800Y944372D01*
X1549400Y981710D02*
X1556004Y975106D01*
Y963168D02*
Y975106D01*
X1574800Y812800D02*
Y944372D01*
X1621028Y990600D01*
X1651000D01*
Y1022350D01*
X1695450Y1066800D02*
X1701800D01*
X1651000Y1022350D02*
X1695450Y1066800D01*
X1550035Y1040130D02*
X1625600Y1115695D01*
Y1244600D01*
X1559921Y776879D02*
X1574800D01*
X1651000Y939800D02*
Y990600D01*
Y939800D02*
X1701800Y889000D01*
X1651000Y859242D02*
X1680758Y889000D01*
X1651000Y812800D02*
Y859242D01*
X1680758Y889000D02*
X1701800D01*
X1651000Y812800D02*
X1727200Y736600D01*
X1545042Y762000D02*
X1559921Y776879D01*
X1727200Y711200D02*
Y736600D01*
X1473200Y762000D02*
X1545042D01*
X1422400Y812800D02*
X1473200Y762000D01*
X1422400Y812800D02*
Y833842D01*
X1392642Y863600D02*
X1422400Y833842D01*
X1320800Y863600D02*
X1392642D01*
X1270000Y812800D02*
X1320800Y863600D01*
Y1054100D02*
X1322070Y1055370D01*
X1320800Y976630D02*
Y1054100D01*
X1270000Y812800D02*
Y925830D01*
X1320800Y976630D01*
X1219200Y736600D02*
X1270000Y787400D01*
Y812800D01*
X1143000Y736600D02*
X1219200D01*
X1143000D02*
Y787400D01*
X1117600Y812800D02*
Y838200D01*
Y812800D02*
X1143000Y787400D01*
X1092200Y838200D02*
X1117600D01*
X1066800Y863600D02*
X1092200Y838200D01*
X1066800Y863600D02*
Y939800D01*
X1117600Y990600D01*
X1138642D01*
X1168400Y1020358D01*
Y1102360D01*
X1141730Y1129030D02*
X1168400Y1102360D01*
X1141730Y1129030D02*
X1143000Y1130300D01*
Y1207770D01*
X1625600Y1244600D02*
X1651000D01*
X1549400D02*
X1625600D01*
X1651000D02*
X1676400Y1219200D01*
Y1193800D02*
Y1219200D01*
X1524000Y1193800D02*
Y1219200D01*
X1549400Y1244600D01*
D24*
X1371600Y1193800D02*
D03*
X1219200D02*
D03*
X1524000D02*
D03*
X1676400D02*
D03*
X1117600Y990600D02*
D03*
Y838200D02*
D03*
X1270000Y812800D02*
D03*
X1422400D02*
D03*
X1143000Y736600D02*
D03*
X1574800Y812800D02*
D03*
X1727200Y711200D02*
D03*
X1701800Y889000D02*
D03*
Y1066800D02*
D03*
D25*
X1422400Y1193800D02*
D03*
X1270000D02*
D03*
X1574800D02*
D03*
X1727200D02*
D03*
X1219200Y812800D02*
D03*
X1371600D02*
D03*
X1092200Y736600D02*
D03*
X1524000Y812800D02*
D03*
X1676400Y711200D02*
D03*
D26*
X1117600Y1041400D02*
D03*
Y889000D02*
D03*
X1701800Y838200D02*
D03*
Y1016000D02*
D03*
D27*
X1550035Y1040130D02*
D03*
D28*
X1549400Y981710D02*
D03*
D29*
X1093470Y1207135D02*
D03*
Y1129665D02*
D03*
X1370330Y977265D02*
D03*
Y1054735D02*
D03*
D30*
X1143000Y1207770D02*
D03*
X1141730Y1129030D02*
D03*
X1320800Y976630D02*
D03*
X1322070Y1055370D02*
D03*
M02*
