M48
;Layer_Color=9474304
;FILE_FORMAT=4:4
METRIC,LZ
;TYPE=PLATED
T01F00S00C1.1000
T02F00S00C1.5000
%
T01
X016764Y007112
X017272
X01143Y007366
X010922
X011176Y008382
Y00889
Y009906
Y010414
X012192Y008128
X0127
X013716
X014224
X01524
X015748
X017018Y008382
Y00889
Y01016
Y010668
X017272Y011938
X016764
X015748
X01524
X014224
X013716
X0127
X012192
T02
X0109347Y01129665
X0114173Y0112903
X0132207Y0105537
X0137033Y01054735
Y00977265
X013208Y0097663
X015494Y0098171
X01550035Y0104013
X01143Y0120777
X0109347Y01207135
M30
